<?xml version="1.0" standalone="no"?>
<!DOCTYPE svg PUBLIC "-//W3C//DTD SVG 20010904//EN"
 "http://www.w3.org/TR/2001/REC-SVG-20010904/DTD/svg10.dtd">
<svg version="1.0" xmlns="http://www.w3.org/2000/svg"
 width="300.000000pt" height="220.000000pt" viewBox="0 0 300.000000 220.000000"
 preserveAspectRatio="xMidYMid meet">
<metadata>
Created by potrace 1.10, written by Peter Selinger 2001-2011
</metadata>
<g transform="translate(0.000000,220.000000) scale(0.100000,-0.100000)"
fill="#000000" stroke="none">
<path d="M1310 2135 c-64 -13 -141 -38 -212 -69 -37 -16 -88 -72 -88 -96 0 -7
-3 -10 -6 -7 -4 3 -18 -3 -32 -13 -13 -11 -32 -20 -41 -20 -35 0 -181 -182
-181 -226 0 -7 -5 -25 -11 -41 -7 -15 -13 -35 -15 -43 -1 -8 -8 -33 -14 -55
-22 -83 -9 -232 30 -320 45 -106 65 -145 72 -145 4 0 8 -6 8 -13 0 -7 18 -33
40 -57 22 -25 40 -48 40 -52 0 -5 7 -8 15 -8 8 0 22 -11 31 -25 9 -14 21 -25
26 -25 6 0 31 -14 56 -31 66 -44 179 -88 284 -109 59 -12 241 -16 268 -7 8 3
47 12 85 21 77 18 167 52 208 79 15 10 27 15 27 12 0 -4 15 4 33 17 48 33 177
167 177 182 0 7 7 19 15 26 8 7 15 18 15 24 0 7 9 22 20 34 23 25 73 187 67
219 -2 12 0 20 5 17 5 -3 7 5 4 18 -3 12 -8 59 -11 102 -3 44 -12 94 -20 113
-8 18 -15 37 -16 41 -4 19 -15 40 -36 75 -13 20 -21 37 -17 37 3 0 -1 6 -8 14
-7 7 -29 33 -48 57 -104 131 -259 228 -425 267 -98 22 -257 26 -345 7z m310
-36 c260 -41 503 -257 565 -504 34 -133 12 -295 -57 -428 -223 -429 -868 -510
-1213 -152 -142 147 -207 344 -176 532 l12 70 57 -23 c31 -13 63 -24 70 -24 6
0 12 -4 12 -9 0 -4 22 -37 49 -72 44 -58 49 -70 53 -126 4 -53 2 -63 -12 -63
-9 0 -31 -16 -50 -35 -33 -34 -72 -46 -85 -25 -9 15 -35 12 -35 -5 0 -19 31
-35 70 -35 22 0 40 9 63 34 49 52 76 53 122 6 41 -42 124 -80 174 -80 35 0 60
25 42 43 -9 9 -14 9 -21 -2 -7 -13 -17 -13 -64 -1 -44 10 -69 25 -116 67 l-60
55 0 59 c0 54 -3 62 -36 99 -31 34 -33 40 -17 40 34 0 125 -31 193 -65 97 -49
253 -105 323 -116 34 -6 86 -8 114 -4 81 10 89 5 84 -56 -5 -77 26 -166 50
-142 7 7 6 21 -5 48 -17 39 -22 130 -8 139 8 4 55 -13 98 -37 70 -39 102 -68
118 -108 13 -31 20 -39 28 -31 9 9 8 18 0 37 -17 36 -17 35 33 28 35 -4 45 -3
45 9 0 9 -20 17 -64 25 -35 6 -76 19 -92 29 l-28 19 57 3 c42 2 57 7 57 17 0
12 -16 15 -77 15 -68 0 -119 8 -173 26 -9 3 10 15 44 29 69 28 85 40 69 56 -7
7 -20 4 -44 -10 -19 -11 -63 -29 -99 -41 -55 -19 -80 -22 -166 -17 -84 4 -112
10 -171 36 -39 17 -76 31 -82 31 -6 0 -43 15 -83 34 -40 19 -82 38 -93 42 -16
6 -17 8 -4 11 18 4 115 -11 142 -22 13 -5 17 -2 17 13 0 25 -20 30 -159 37
-57 3 -112 10 -121 15 -9 5 -60 23 -114 40 -53 17 -96 34 -96 37 0 18 91 172
123 209 34 38 41 42 63 34 14 -6 46 -10 70 -10 47 0 114 -31 149 -70 18 -20
18 -22 -3 -59 -23 -41 -28 -71 -13 -71 6 0 21 22 36 48 l26 48 107 -53 c59
-29 110 -53 115 -53 13 0 7 23 -10 37 -16 12 -13 13 25 8 27 -5 48 -3 57 5 28
23 4 31 -73 25 -75 -6 -79 -5 -157 33 -44 22 -88 48 -98 59 -17 20 -17 20 55
19 57 0 82 4 115 22 35 18 58 22 136 22 67 0 98 4 106 13 17 21 5 25 -67 20
l-67 -4 35 30 c31 26 33 31 17 37 -12 4 -27 -1 -45 -18 -15 -14 -58 -39 -97
-57 -61 -28 -80 -32 -153 -32 -46 0 -87 3 -93 7 -6 3 -43 9 -82 13 l-72 8 36
16 c22 10 41 28 48 45 9 22 29 37 79 60 162 74 299 91 492 61z"/>
<path d="M334 2009 c-19 -22 -13 -43 19 -63 12 -8 21 -5 36 8 26 23 26 38 3
59 -24 22 -35 21 -58 -4z m50 -30 c-8 -14 -34 -11 -34 4 0 8 3 17 7 20 9 9 34
-13 27 -24z"/>
<path d="M2690 1980 c-22 -22 -19 -40 10 -58 15 -9 26 -10 40 -2 26 14 26 56
1 70 -26 13 -28 13 -51 -10z m50 -25 c0 -8 -9 -15 -20 -15 -11 0 -20 7 -20 15
0 8 9 15 20 15 11 0 20 -7 20 -15z"/>
<path d="M242 1887 c-20 -21 -21 -25 -6 -45 21 -31 61 -29 76 3 9 21 8 28 -7
45 -23 26 -37 25 -63 -3z m44 -36 c-22 -21 -46 0 -26 24 10 12 16 13 27 3 12
-10 12 -13 -1 -27z"/>
<path d="M2345 1860 c-17 -18 -17 -21 -1 -45 19 -29 38 -32 60 -9 21 20 20 37
-2 57 -24 22 -35 21 -57 -3z m48 -17 c9 -9 -13 -34 -24 -27 -14 8 -11 34 4 34
8 0 17 -3 20 -7z"/>
<path d="M568 1765 c-10 -22 -9 -29 9 -46 16 -17 25 -19 41 -10 29 15 35 41
16 62 -24 27 -52 24 -66 -6z m52 -21 c0 -14 -21 -19 -33 -7 -9 9 13 34 24 27
5 -3 9 -12 9 -20z"/>
<path d="M2795 1760 c-22 -24 -13 -66 16 -75 15 -5 28 0 46 17 l24 24 -21 27
c-25 32 -41 34 -65 7z m45 -30 c0 -21 -24 -28 -35 -10 -8 14 3 30 21 30 8 0
14 -9 14 -20z"/>
<path d="M2783 1505 c-27 -19 -35 -52 -16 -70 20 -20 46 -19 67 4 17 18 17 20
-4 41 -11 11 -18 25 -15 30 9 15 -8 12 -32 -5z m32 -45 c0 -8 -8 -16 -17 -18
-13 -2 -18 3 -18 18 0 15 5 20 18 18 9 -2 17 -10 17 -18z"/>
<path d="M392 1434 c-27 -19 -28 -45 -4 -67 25 -23 39 -21 58 8 18 28 14 49
-14 64 -14 7 -25 6 -40 -5z m46 -31 c5 -17 -26 -29 -40 -15 -6 6 -7 15 -3 22
9 14 37 9 43 -7z"/>
<path d="M248 1330 c-22 -13 -12 -49 18 -62 40 -19 73 29 42 60 -14 14 -37 15
-60 2z m50 -27 c-2 -10 -10 -18 -18 -18 -8 0 -16 8 -18 18 -2 12 3 17 18 17
15 0 20 -5 18 -17z"/>
<path d="M2529 1289 c-23 -23 -22 -37 7 -56 18 -11 23 -10 42 7 21 20 21 22 6
45 -20 30 -28 31 -55 4z m37 -34 c-5 -14 -9 -15 -21 -5 -12 10 -13 16 -4 27
15 18 34 1 25 -22z"/>
<path d="M104 1188 c-12 -18 -17 -360 -7 -437 6 -52 9 -13 13 189 3 140 5 256
4 258 -1 2 -6 -2 -10 -10z"/>
<path d="M402 1091 c-20 -12 -11 -55 12 -59 27 -6 48 25 35 49 -10 20 -26 24
-47 10z"/>
<path d="M550 1010 c-14 -26 3 -60 30 -60 30 0 44 30 28 63 -12 23 -45 22 -58
-3z m45 -20 c0 -8 -8 -16 -17 -18 -13 -2 -18 3 -18 18 0 15 5 20 18 18 9 -2
17 -10 17 -18z"/>
<path d="M2723 935 c-18 -19 -16 -29 6 -49 36 -33 83 6 59 48 -11 20 -48 20
-65 1z m52 -25 c0 -8 -8 -16 -17 -18 -13 -2 -18 3 -18 18 0 15 5 20 18 18 9
-2 17 -10 17 -18z"/>
<path d="M265 909 c-9 -28 16 -53 44 -44 23 7 28 34 9 53 -19 19 -46 14 -53
-9z m45 -12 c0 -8 -3 -17 -7 -20 -9 -9 -34 13 -27 24 8 14 34 11 34 -4z"/>
<path d="M2154 835 c-10 -24 4 -45 29 -45 31 0 35 5 29 35 -3 18 -11 25 -28
25 -14 0 -27 -7 -30 -15z m43 -10 c7 -20 -2 -29 -21 -22 -9 4 -13 13 -10 22 8
19 23 19 31 0z"/>
<path d="M2831 726 c-15 -17 2 -56 23 -56 21 0 47 35 40 54 -8 20 -47 21 -63
2z m47 -19 c2 -12 -3 -17 -17 -17 -12 0 -21 6 -21 13 0 31 32 34 38 4z"/>
<path d="M1536 665 c-10 -27 -7 -42 9 -49 27 -10 46 5 43 33 -4 31 -42 42 -52
16z m42 -18 c2 -10 -3 -17 -12 -17 -18 0 -29 16 -21 31 9 14 29 6 33 -14z"/>
<path d="M2651 636 c-9 -11 -10 -20 -1 -35 20 -38 67 -19 56 23 -7 29 -36 35
-55 12z m43 -27 c-8 -14 -34 -11 -34 4 0 8 3 17 7 20 9 9 34 -13 27 -24z"/>
<path d="M491 612 c-13 -25 8 -56 35 -50 29 5 27 62 -3 66 -13 2 -26 -4 -32
-16z m47 -19 c-2 -10 -10 -18 -18 -18 -8 0 -16 8 -18 18 -2 12 3 17 18 17 15
0 20 -5 18 -17z"/>
<path d="M842 611 c-8 -4 -12 -19 -10 -32 2 -18 9 -24 28 -24 28 0 39 27 20
50 -14 17 -20 18 -38 6z m34 -22 c10 -17 -13 -36 -27 -22 -12 12 -4 33 11 33
5 0 12 -5 16 -11z"/>
<path d="M1154 586 c-25 -19 -9 -50 29 -54 33 -4 49 35 21 55 -22 16 -26 16
-50 -1z m46 -20 c0 -8 -5 -18 -11 -22 -14 -8 -33 11 -25 25 10 16 36 13 36 -3z"/>
<path d="M2881 411 c-8 -14 -6 -23 9 -36 33 -29 78 7 50 40 -17 21 -47 19 -59
-4z m57 -8 c5 -17 -26 -29 -40 -15 -6 6 -7 15 -3 22 9 14 37 9 43 -7z"/>
<path d="M1784 376 c-10 -26 4 -48 28 -44 17 2 23 10 23 28 0 18 -6 26 -23 28
-13 2 -25 -3 -28 -12z m42 -7 c10 -17 -13 -36 -27 -22 -12 12 -4 33 11 33 5 0
12 -5 16 -11z"/>
<path d="M1449 338 c-12 -22 -11 -23 8 -5 18 15 22 16 32 3 17 -20 4 -39 -22
-32 -14 3 -17 2 -9 -6 25 -25 65 19 42 47 -18 21 -37 18 -51 -7z"/>
<path d="M2561 306 c-9 -11 -10 -20 -2 -34 12 -22 42 -23 49 -2 3 8 0 10 -7 6
-7 -4 -19 -5 -28 -2 -12 5 -13 9 -3 21 10 12 16 13 28 3 13 -11 14 -10 10 2
-7 21 -32 24 -47 6z"/>
<path d="M2310 255 c-16 -19 -4 -52 20 -58 34 -9 56 55 24 67 -23 9 -30 8 -44
-9z m48 -22 c5 -17 -26 -29 -40 -15 -6 6 -7 15 -3 22 9 14 37 9 43 -7z"/>
<path d="M2904 207 c-7 -23 19 -49 42 -40 17 6 18 39 2 50 -24 14 -37 11 -44
-10z m42 -22 c-5 -14 -9 -15 -21 -5 -12 10 -13 16 -4 27 15 18 34 1 25 -22z"/>
</g>
</svg>
